
<svg xmlns="http://www.w3.org/2000/svg" xmlns:xlink="http://www.w3.org/1999/xlink" x="0px" y="0px"
	 viewBox="0 0 255.61 92.24" style="enable-background:new 0 0 255.61 92.24;" xml:space="preserve">
<style type="text/css">
	.st0{opacity:0.8;}
	.st1{fill:#FBFF1F;}
	.st2{opacity:0.65;fill:#1FBDFF;}
	.st3{opacity:0.65;}
	.st4{fill:#FF3579;}
	.st5{opacity:0.65;fill:#FF3579;}
	.st6{fill:#332CFF;}
</style>
<g class="st0">
	<rect x="-178.35" y="-9.94" class="st1" width="112.12" height="112.12"/>
</g>
<circle class="st2" cx="-150.32" cy="-9.94" r="28.03"/>
<g class="st3">
	<circle class="st4" cx="-90.58" cy="58.59" r="43.59"/>
</g>
<polygon class="st5" points="-20.06,58.59 -66.23,22.53 -66.23,94.65 "/>
<g>
	<path class="st6" d="M27.48,0.09c5.43,0,9.89,0.92,13.38,2.77c3.48,1.85,6.23,4.63,8.26,8.36c2.02,3.73,3.41,8.37,4.18,13.94
		c0.77,5.57,1.15,12.08,1.15,19.53c0,7.94-0.42,14.88-1.25,20.82c-0.84,5.94-2.26,10.9-4.29,14.87c-2.02,3.97-4.77,6.94-8.26,8.91
		c-3.48,1.97-7.87,2.95-13.17,2.95c-5.43,0-9.93-1-13.48-3c-3.55-2-6.36-4.99-8.41-8.96c-2.06-3.97-3.5-8.92-4.34-14.87
		C0.42,59.48,0,52.57,0,44.69c0-7.39,0.47-13.86,1.41-19.44c0.94-5.57,2.47-10.22,4.6-13.94c2.12-3.72,4.95-6.52,8.46-8.4
		C17.99,1.03,22.33,0.09,27.48,0.09z M38.77,44.69c0-5.23-0.14-9.82-0.42-13.76c-0.28-3.94-0.84-7.22-1.67-9.83
		c-0.84-2.62-1.99-4.57-3.45-5.86c-1.46-1.29-3.34-1.94-5.64-1.94c-2.37,0-4.28,0.65-5.75,1.94c-1.46,1.29-2.6,3.25-3.4,5.86
		c-0.8,2.62-1.34,5.89-1.62,9.83c-0.28,3.94-0.42,8.53-0.42,13.76c0,11.51,0.77,20.14,2.3,25.9c1.53,5.76,4.49,8.63,8.88,8.63
		c2.23,0,4.08-0.72,5.54-2.17c1.46-1.45,2.61-3.62,3.45-6.51c0.84-2.89,1.41-6.49,1.72-10.8C38.61,55.43,38.77,50.41,38.77,44.69z
		 M77.75,88.91c0,2.22-1.25,3.32-3.76,3.32H65c-2.58,0-3.87-1.2-3.87-3.6V3.32c0-2.15,1.29-3.23,3.87-3.23h8.67
		c2.72,0,4.08,1.14,4.08,3.42V88.91z"/>
	<path class="st6" d="M143.58,50.5c0,1.85-0.98,3.05-2.93,3.6c-14.42,3.14-29.99,4.8-46.71,4.99c-2.65,0-3.97-0.95-3.97-2.86V5.26
		c0-2.22,1.57-3.32,4.7-3.32h43.79c3.41,0,5.12,1.11,5.12,3.32V50.5z M162.92,78.85c3.06,0,4.6,1.26,4.6,3.79v5.26
		c0,2.89-1.53,4.34-4.6,4.34H95.1c-2.79-0.06-4.18-1.17-4.18-3.32v-20.5c0-2.4,1.29-3.6,3.87-3.6h8.88c2.44,0,3.66,1.11,3.66,3.32
		v10.71H162.92z M105.86,46.9c7.38-0.06,14.49-0.8,21.32-2.22V14.77h-21.32V46.9z M167.62,57.15c0,2.34-1.43,3.51-4.28,3.51h-8.36
		c-2.79,0-4.18-1.11-4.18-3.32V3.32c0-2.15,1.36-3.23,4.08-3.23h8.67c2.72,0,4.08,1.08,4.08,3.23V57.15z"/>
	<path class="st6" d="M208.06,77V66.48c-15.88-1.72-23.93-8.46-24.14-20.22c0-7.08,1.53-12.22,4.6-15.42h-5.02
		c-2.79,0-4.18-1.23-4.18-3.69V20.5c0-2.59,1.43-3.88,4.28-3.88h66.78c2.86,0,4.29,1.23,4.29,3.69v6.74c0,2.52-1.46,3.79-4.39,3.79
		h-5.12c2.93,3.14,4.39,8.28,4.39,15.42c0,11.94-8.36,18.71-25.08,20.31V77h27.07c2.72,0,4.08,1.2,4.08,3.6v6.28
		c0,2.28-1.25,3.42-3.76,3.42H183.5c-2.79,0-4.18-1.2-4.18-3.6v-6.28c0-2.28,1.32-3.42,3.97-3.42H208.06z M194.89,13.2
		c-3,0-4.49-1.42-4.49-4.25V3.97c0-2.65,1.5-3.97,4.49-3.97h41.59c3,0,4.49,1.17,4.49,3.51v6c0,2.46-1.29,3.69-3.87,3.69H194.89z
		 M216.11,30.38c-10.38,0-15.57,4.12-15.57,12.37c0,8.37,5.29,12.56,15.88,12.56c10.38,0,15.57-4.19,15.57-12.56
		C231.99,34.5,226.7,30.38,216.11,30.38z"/>
</g>
</svg>
