<?xml version="1.0" encoding="utf-8"?>
<!-- Generator: Adobe Illustrator 25.0.1, SVG Export Plug-In . SVG Version: 6.00 Build 0)  -->
<svg version="1.1" id="Layer_1" xmlns="http://www.w3.org/2000/svg" xmlns:xlink="http://www.w3.org/1999/xlink" x="0px" y="0px"
	 viewBox="0 0 468.7 165.3" style="enable-background:new 0 0 468.7 165.3;" xml:space="preserve">
<style type="text/css">
	.st0{opacity:0.8;}
	.st1{fill:#FBFF1F;}
	.st2{opacity:0.65;fill:#1FBDFF;enable-background:new    ;}
	.st3{opacity:0.65;}
	.st4{fill:#FF3579;}
	.st5{opacity:0.65;fill:#FF3579;enable-background:new    ;}
	.st6{fill:#1592FF;}
</style>
<g class="st0">
	<rect x="2.7" y="34.5" class="st1" width="128.4" height="128.4"/>
</g>
<circle class="st2" cx="34.8" cy="34.5" r="32.1"/>
<g class="st3">
	<circle class="st4" cx="103.2" cy="112.9" r="49.9"/>
</g>
<polygon class="st5" points="183.9,112.8 131.1,71.6 131.1,154.2 "/>
<g>
	<path class="st6" d="M235.5,50.1c5.5,0,10,1,13.5,2.9s6.3,4.9,8.3,8.8c2,3.9,3.5,8.8,4.2,14.6c0.8,5.8,1.2,12.7,1.2,20.5
		c0,8.3-0.4,15.6-1.3,21.8c-0.8,6.2-2.3,11.4-4.3,15.6c-2,4.2-4.8,7.3-8.3,9.4c-3.5,2.1-7.9,3.1-13.3,3.1c-5.5,0-10-1.1-13.6-3.1
		c-3.6-2.1-6.4-5.2-8.5-9.4s-3.5-9.4-4.4-15.6c-0.8-6.2-1.3-13.5-1.3-21.7c0-7.8,0.5-14.5,1.4-20.4s2.5-10.7,4.6-14.6s5-6.8,8.6-8.8
		C225.9,51.1,230.3,50.1,235.5,50.1z M246.9,96.9c0-5.5-0.1-10.3-0.4-14.4s-0.8-7.6-1.7-10.3c-0.8-2.7-2-4.8-3.5-6.2s-3.4-2-5.7-2
		c-2.4,0-4.3,0.7-5.8,2c-1.5,1.4-2.6,3.4-3.4,6.2s-1.4,6.2-1.6,10.3s-0.4,8.9-0.4,14.4c0,12.1,0.8,21.1,2.3,27.2
		c1.6,6,4.5,9.1,9,9.1c2.2,0,4.1-0.8,5.6-2.3s2.6-3.8,3.5-6.8c0.8-3,1.4-6.8,1.7-11.3C246.7,108.1,246.9,102.9,246.9,96.9z
		 M286.2,143.3c0,2.3-1.3,3.5-3.8,3.5h-9.1c-2.6,0-3.9-1.3-3.9-3.8V53.5c0-2.3,1.3-3.4,3.9-3.4h8.8c2.7,0,4.1,1.2,4.1,3.6V143.3
		L286.2,143.3z"/>
	<path class="st6" d="M352.7,103c0,1.9-1,3.2-3,3.8c-14.6,3.3-30.3,5-47.2,5.2c-2.7,0-4-1-4-3V55.5c0-2.3,1.6-3.5,4.8-3.5h44.2
		c3.5,0,5.2,1.2,5.2,3.5V103L352.7,103z M372.2,132.7c3.1,0,4.6,1.3,4.6,4v5.5c0,3-1.5,4.6-4.6,4.6h-68.5c-2.8-0.1-4.2-1.2-4.2-3.5
		v-21.5c0-2.5,1.3-3.8,3.9-3.8h9c2.5,0,3.7,1.2,3.7,3.5v11.2H372.2L372.2,132.7z M314.6,99.2c7.5-0.1,14.6-0.8,21.5-2.3V65.5h-21.5
		V99.2z M377,109.9c0,2.4-1.4,3.7-4.3,3.7h-8.4c-2.8,0-4.2-1.2-4.2-3.5V53.5c0-2.3,1.4-3.4,4.1-3.4h8.8c2.7,0,4.1,1.1,4.1,3.4
		L377,109.9L377,109.9z"/>
	<path class="st6" d="M417.8,130.8v-11c-16-1.8-24.2-8.9-24.4-21.2c0-7.4,1.5-12.8,4.6-16.2h-5c-2.8,0-4.2-1.3-4.2-3.9v-7
		c0-2.7,1.4-4.1,4.3-4.1h67.4c2.9,0,4.3,1.3,4.3,3.9v7.1c0,2.7-1.5,4-4.4,4h-5.2c3,3.3,4.4,8.7,4.4,16.2c0,12.5-8.4,19.6-25.3,21.3
		v10.9h27.3c2.7,0,4.1,1.3,4.1,3.8v6.6c0,2.4-1.3,3.6-3.8,3.6h-69c-2.8,0-4.2-1.3-4.2-3.8v-6.6c0-2.4,1.3-3.6,4-3.6H417.8
		L417.8,130.8z M404.5,63.8c-3,0-4.5-1.5-4.5-4.5v-5.2c0-2.8,1.5-4.2,4.5-4.2h42c3,0,4.5,1.2,4.5,3.7V60c0,2.6-1.3,3.9-3.9,3.9
		h-42.6V63.8z M426,81.9c-10.5,0-15.7,4.3-15.7,13c0,8.8,5.3,13.2,16,13.2c10.5,0,15.7-4.4,15.7-13.2C442,86.2,436.6,81.9,426,81.9z
		"/>
</g>
</svg>
